<?xml version="1.0" encoding="UTF-8" standalone="no"?><svg xmlns="http://www.w3.org/2000/svg" xmlns:xlink="http://www.w3.org/1999/xlink" contentScriptType="application/ecmascript" contentStyleType="text/css" height="602px" preserveAspectRatio="none" style="width:709px;height:602px;" version="1.1" viewBox="0 0 709 602" width="709px" zoomAndPan="magnify"><defs><filter height="300%" id="fq98qw5fzxegw" width="300%" x="-1" y="-1"><feGaussianBlur result="blurOut" stdDeviation="2.0"/><feColorMatrix in="blurOut" result="blurOut2" type="matrix" values="0 0 0 0 0 0 0 0 0 0 0 0 0 0 0 0 0 0 .4 0"/><feOffset dx="4.0" dy="4.0" in="blurOut2" result="blurOut3"/><feBlend in="SourceGraphic" in2="blurOut3" mode="normal"/></filter></defs><g><rect fill="#FEFECE" filter="url(#fq98qw5fzxegw)" height="33.9688" rx="12.5" ry="12.5" style="stroke: #A80036; stroke-width: 1.5;" width="104" x="10" y="286.1094"/><text fill="#000000" font-family="sans-serif" font-size="12" lengthAdjust="spacingAndGlyphs" textLength="84" x="20" y="307.248">牙科综合治疗机</text><rect fill="#FEFECE" filter="url(#fq98qw5fzxegw)" height="33.9688" rx="12.5" ry="12.5" style="stroke: #A80036; stroke-width: 1.5;" width="104" x="164" y="98.7344"/><text fill="#000000" font-family="sans-serif" font-size="12" lengthAdjust="spacingAndGlyphs" textLength="84" x="174" y="119.873">市场与产品调研</text><path d="M114,303.0938 L124,303.0938 C139,303.0938 139,115.7188 154,115.7188 L164,115.7188 " fill="none" style="stroke: #A80036; stroke-width: 1.0;"/><rect fill="#FEFECE" filter="url(#fq98qw5fzxegw)" height="33.9688" rx="12.5" ry="12.5" style="stroke: #A80036; stroke-width: 1.5;" width="104" x="164" y="152.7031"/><text fill="#000000" font-family="sans-serif" font-size="12" lengthAdjust="spacingAndGlyphs" textLength="84" x="174" y="173.8418">设计与模型制作</text><rect fill="#FEFECE" filter="url(#fq98qw5fzxegw)" height="33.9688" rx="12.5" ry="12.5" style="stroke: #A80036; stroke-width: 1.5;" width="104" x="318" y="24.9531"/><text fill="#000000" font-family="sans-serif" font-size="12" lengthAdjust="spacingAndGlyphs" textLength="84" x="328" y="46.0918">方案提出与论证</text><text fill="#000000" font-family="sans-serif" font-size="12" lengthAdjust="spacingAndGlyphs" textLength="108" x="475" y="22.1387">市场与设计定位论证</text><path d="M422,41.9375 L432,41.9375 C447,41.9375 447,17.9844 462,17.9844 L472,17.9844 " fill="none" style="stroke: #A80036; stroke-width: 1.0;"/><text fill="#000000" font-family="sans-serif" font-size="12" lengthAdjust="spacingAndGlyphs" textLength="144" x="475" y="38.1074">人机学及使用方式操作方案</text><path d="M422,41.9375 L432,41.9375 C447,41.9375 447,33.9531 462,33.9531 L472,33.9531 " fill="none" style="stroke: #A80036; stroke-width: 1.0;"/><text fill="#000000" font-family="sans-serif" font-size="12" lengthAdjust="spacingAndGlyphs" textLength="120" x="475" y="54.0762">提出产品初步方案设想</text><path d="M422,41.9375 L432,41.9375 C447,41.9375 447,49.9219 462,49.9219 L472,49.9219 " fill="none" style="stroke: #A80036; stroke-width: 1.0;"/><text fill="#000000" font-family="sans-serif" font-size="12" lengthAdjust="spacingAndGlyphs" textLength="84" x="475" y="70.0449">概念设计与创意</text><path d="M422,41.9375 L432,41.9375 C447,41.9375 447,65.8906 462,65.8906 L472,65.8906 " fill="none" style="stroke: #A80036; stroke-width: 1.0;"/><path d="M268,169.6875 L278,169.6875 C293,169.6875 293,41.9375 308,41.9375 L318,41.9375 " fill="none" style="stroke: #A80036; stroke-width: 1.0;"/><rect fill="#FEFECE" filter="url(#fq98qw5fzxegw)" height="33.9688" rx="12.5" ry="12.5" style="stroke: #A80036; stroke-width: 1.5;" width="104" x="318" y="104.7969"/><text fill="#000000" font-family="sans-serif" font-size="12" lengthAdjust="spacingAndGlyphs" textLength="84" x="328" y="125.9355">方案筛选与论证</text><text fill="#000000" font-family="sans-serif" font-size="12" lengthAdjust="spacingAndGlyphs" textLength="120" x="475" y="86.0137">初步方案综合论证评价</text><path d="M422,121.7813 L432,121.7813 C447,121.7813 447,81.8594 462,81.8594 L472,81.8594 " fill="none" style="stroke: #A80036; stroke-width: 1.0;"/><text fill="#000000" font-family="sans-serif" font-size="12" lengthAdjust="spacingAndGlyphs" textLength="180" x="475" y="101.9824">人机模型初步分析与测试数据分析</text><path d="M422,121.7813 L432,121.7813 C447,121.7813 447,97.8281 462,97.8281 L472,97.8281 " fill="none" style="stroke: #A80036; stroke-width: 1.0;"/><text fill="#000000" font-family="sans-serif" font-size="12" lengthAdjust="spacingAndGlyphs" textLength="48" x="475" y="117.9512">模型分析</text><path d="M422,121.7813 L432,121.7813 C447,121.7813 447,113.7969 462,113.7969 L472,113.7969 " fill="none" style="stroke: #A80036; stroke-width: 1.0;"/><text fill="#000000" font-family="sans-serif" font-size="12" lengthAdjust="spacingAndGlyphs" textLength="84" x="475" y="133.9199">方案筛选与综合</text><path d="M422,121.7813 L432,121.7813 C447,121.7813 447,129.7656 462,129.7656 L472,129.7656 " fill="none" style="stroke: #A80036; stroke-width: 1.0;"/><text fill="#000000" font-family="sans-serif" font-size="12" lengthAdjust="spacingAndGlyphs" textLength="132" x="475" y="149.8887">电脑模型及人机模拟分析</text><path d="M422,121.7813 L432,121.7813 C447,121.7813 447,145.7344 462,145.7344 L472,145.7344 " fill="none" style="stroke: #A80036; stroke-width: 1.0;"/><text fill="#000000" font-family="sans-serif" font-size="12" lengthAdjust="spacingAndGlyphs" textLength="72" x="475" y="165.8574">初步模型论证</text><path d="M422,121.7813 L432,121.7813 C447,121.7813 447,161.7031 462,161.7031 L472,161.7031 " fill="none" style="stroke: #A80036; stroke-width: 1.0;"/><path d="M268,169.6875 L278,169.6875 C293,169.6875 293,121.7813 308,121.7813 L318,121.7813 " fill="none" style="stroke: #A80036; stroke-width: 1.0;"/><rect fill="#FEFECE" filter="url(#fq98qw5fzxegw)" height="33.9688" rx="12.5" ry="12.5" style="stroke: #A80036; stroke-width: 1.5;" width="104" x="318" y="184.6406"/><text fill="#000000" font-family="sans-serif" font-size="12" lengthAdjust="spacingAndGlyphs" textLength="84" x="328" y="205.7793">方案确定与论证</text><text fill="#000000" font-family="sans-serif" font-size="12" lengthAdjust="spacingAndGlyphs" textLength="180" x="475" y="181.8262">最终方案确定与电脑模型方案确定</text><path d="M422,201.625 L432,201.625 C447,201.625 447,177.6719 462,177.6719 L472,177.6719 " fill="none" style="stroke: #A80036; stroke-width: 1.0;"/><text fill="#000000" font-family="sans-serif" font-size="12" lengthAdjust="spacingAndGlyphs" textLength="96" x="475" y="197.7949">工作原理样机试验</text><path d="M422,201.625 L432,201.625 C447,201.625 447,193.6406 462,193.6406 L472,193.6406 " fill="none" style="stroke: #A80036; stroke-width: 1.0;"/><text fill="#000000" font-family="sans-serif" font-size="12" lengthAdjust="spacingAndGlyphs" textLength="156" x="475" y="213.7637">比例外观模型及色彩分析处理</text><path d="M422,201.625 L432,201.625 C447,201.625 447,209.6094 462,209.6094 L472,209.6094 " fill="none" style="stroke: #A80036; stroke-width: 1.0;"/><text fill="#000000" font-family="sans-serif" font-size="12" lengthAdjust="spacingAndGlyphs" textLength="222" x="475" y="229.7324">全尺寸样机制作 (提供使用、试验及检测 )</text><path d="M422,201.625 L432,201.625 C447,201.625 447,225.5781 462,225.5781 L472,225.5781 " fill="none" style="stroke: #A80036; stroke-width: 1.0;"/><path d="M268,169.6875 L278,169.6875 C293,169.6875 293,201.625 308,201.625 L318,201.625 " fill="none" style="stroke: #A80036; stroke-width: 1.0;"/><rect fill="#FEFECE" filter="url(#fq98qw5fzxegw)" height="33.9688" rx="12.5" ry="12.5" style="stroke: #A80036; stroke-width: 1.5;" width="104" x="318" y="264.4844"/><text fill="#000000" font-family="sans-serif" font-size="12" lengthAdjust="spacingAndGlyphs" textLength="84" x="328" y="285.623">设计及制作手段</text><text fill="#000000" font-family="sans-serif" font-size="12" lengthAdjust="spacingAndGlyphs" textLength="72" x="475" y="245.7012">概念创意草图</text><path d="M422,281.4688 L432,281.4688 C447,281.4688 447,241.5469 462,241.5469 L472,241.5469 " fill="none" style="stroke: #A80036; stroke-width: 1.0;"/><text fill="#000000" font-family="sans-serif" font-size="12" lengthAdjust="spacingAndGlyphs" textLength="72" x="475" y="261.6699">人机模拟测试</text><path d="M422,281.4688 L432,281.4688 C447,281.4688 447,257.5156 462,257.5156 L472,257.5156 " fill="none" style="stroke: #A80036; stroke-width: 1.0;"/><text fill="#000000" font-family="sans-serif" font-size="12" lengthAdjust="spacingAndGlyphs" textLength="96" x="475" y="277.6387">电脑三维图像成形</text><path d="M422,281.4688 L432,281.4688 C447,281.4688 447,273.4844 462,273.4844 L472,273.4844 " fill="none" style="stroke: #A80036; stroke-width: 1.0;"/><text fill="#000000" font-family="sans-serif" font-size="12" lengthAdjust="spacingAndGlyphs" textLength="72" x="475" y="293.6074">样机制作加工</text><path d="M422,281.4688 L432,281.4688 C447,281.4688 447,289.4531 462,289.4531 L472,289.4531 " fill="none" style="stroke: #A80036; stroke-width: 1.0;"/><text fill="#000000" font-family="sans-serif" font-size="12" lengthAdjust="spacingAndGlyphs" textLength="108" x="475" y="309.5762">表面及视觉设计处理</text><path d="M422,281.4688 L432,281.4688 C447,281.4688 447,305.4219 462,305.4219 L472,305.4219 " fill="none" style="stroke: #A80036; stroke-width: 1.0;"/><text fill="#000000" font-family="sans-serif" font-size="12" lengthAdjust="spacingAndGlyphs" textLength="108" x="475" y="325.5449">相应设计手册及规范</text><path d="M422,281.4688 L432,281.4688 C447,281.4688 447,321.3906 462,321.3906 L472,321.3906 " fill="none" style="stroke: #A80036; stroke-width: 1.0;"/><path d="M268,169.6875 L278,169.6875 C293,169.6875 293,281.4688 308,281.4688 L318,281.4688 " fill="none" style="stroke: #A80036; stroke-width: 1.0;"/><path d="M114,303.0938 L124,303.0938 C139,303.0938 139,169.6875 154,169.6875 L164,169.6875 " fill="none" style="stroke: #A80036; stroke-width: 1.0;"/><rect fill="#FEFECE" filter="url(#fq98qw5fzxegw)" height="33.9688" rx="12.5" ry="12.5" style="stroke: #A80036; stroke-width: 1.5;" width="128" x="164" y="420.3281"/><text fill="#000000" font-family="sans-serif" font-size="12" lengthAdjust="spacingAndGlyphs" textLength="108" x="174" y="441.4668">工程设计与设计管理</text><rect fill="#FEFECE" filter="url(#fq98qw5fzxegw)" height="33.9688" rx="12.5" ry="12.5" style="stroke: #A80036; stroke-width: 1.5;" width="140" x="342" y="339.375"/><text fill="#000000" font-family="sans-serif" font-size="12" lengthAdjust="spacingAndGlyphs" textLength="120" x="352" y="360.5137">工程设计与技术规范化</text><text fill="#000000" font-family="sans-serif" font-size="12" lengthAdjust="spacingAndGlyphs" textLength="48" x="535" y="344.5449">机构设计</text><path d="M482,356.3594 L492,356.3594 C507,356.3594 507,340.3906 522,340.3906 L532,340.3906 " fill="none" style="stroke: #A80036; stroke-width: 1.0;"/><text fill="#000000" font-family="sans-serif" font-size="12" lengthAdjust="spacingAndGlyphs" textLength="60" x="535" y="360.5137">总装图绘制</text><path d="M482,356.3594 L492,356.3594 C507,356.3594 507,356.3594 522,356.3594 L532,356.3594 " fill="none" style="stroke: #A80036; stroke-width: 1.0;"/><text fill="#000000" font-family="sans-serif" font-size="12" lengthAdjust="spacingAndGlyphs" textLength="60" x="535" y="376.4824">零件图绘制</text><path d="M482,356.3594 L492,356.3594 C507,356.3594 507,372.3281 522,372.3281 L532,372.3281 " fill="none" style="stroke: #A80036; stroke-width: 1.0;"/><path d="M292,437.3125 L302,437.3125 C317,437.3125 317,356.3594 332,356.3594 L342,356.3594 " fill="none" style="stroke: #A80036; stroke-width: 1.0;"/><rect fill="#FEFECE" filter="url(#fq98qw5fzxegw)" height="33.9688" rx="12.5" ry="12.5" style="stroke: #A80036; stroke-width: 1.5;" width="128" x="342" y="393.3438"/><text fill="#000000" font-family="sans-serif" font-size="12" lengthAdjust="spacingAndGlyphs" textLength="108" x="352" y="414.4824">产品试制与工艺监理</text><text fill="#000000" font-family="sans-serif" font-size="12" lengthAdjust="spacingAndGlyphs" textLength="132" x="523" y="406.498">有关外型工艺与材料监理</text><path d="M470,410.3281 L480,410.3281 C495,410.3281 495,402.3438 510,402.3438 L520,402.3438 " fill="none" style="stroke: #A80036; stroke-width: 1.0;"/><text fill="#000000" font-family="sans-serif" font-size="12" lengthAdjust="spacingAndGlyphs" textLength="122" x="523" y="422.4668">产品验收 (仅限第一批)</text><path d="M470,410.3281 L480,410.3281 C495,410.3281 495,418.3125 510,418.3125 L520,418.3125 " fill="none" style="stroke: #A80036; stroke-width: 1.0;"/><path d="M292,437.3125 L302,437.3125 C317,437.3125 317,410.3281 332,410.3281 L342,410.3281 " fill="none" style="stroke: #A80036; stroke-width: 1.0;"/><rect fill="#FEFECE" filter="url(#fq98qw5fzxegw)" height="33.9688" rx="12.5" ry="12.5" style="stroke: #A80036; stroke-width: 1.5;" width="116" x="342" y="447.3125"/><text fill="#000000" font-family="sans-serif" font-size="12" lengthAdjust="spacingAndGlyphs" textLength="96" x="352" y="468.4512">产品有关配套设计</text><text fill="#000000" font-family="sans-serif" font-size="12" lengthAdjust="spacingAndGlyphs" textLength="108" x="511" y="460.4668">产品色彩设计及规范</text><path d="M458,464.2969 L468,464.2969 C483,464.2969 483,456.3125 498,456.3125 L508,456.3125 " fill="none" style="stroke: #A80036; stroke-width: 1.0;"/><text fill="#000000" font-family="sans-serif" font-size="12" lengthAdjust="spacingAndGlyphs" textLength="72" x="511" y="476.4355">产品界面设计</text><path d="M458,464.2969 L468,464.2969 C483,464.2969 483,472.2813 498,472.2813 L508,472.2813 " fill="none" style="stroke: #A80036; stroke-width: 1.0;"/><path d="M292,437.3125 L302,437.3125 C317,437.3125 317,464.2969 332,464.2969 L342,464.2969 " fill="none" style="stroke: #A80036; stroke-width: 1.0;"/><rect fill="#FEFECE" filter="url(#fq98qw5fzxegw)" height="33.9688" rx="12.5" ry="12.5" style="stroke: #A80036; stroke-width: 1.5;" width="68" x="342" y="501.2813"/><text fill="#000000" font-family="sans-serif" font-size="12" lengthAdjust="spacingAndGlyphs" textLength="48" x="352" y="522.4199">设计手段</text><text fill="#000000" font-family="sans-serif" font-size="12" lengthAdjust="spacingAndGlyphs" textLength="84" x="463" y="506.4512">电脑工程图绘制</text><path d="M410,518.2656 L420,518.2656 C435,518.2656 435,502.2969 450,502.2969 L460,502.2969 " fill="none" style="stroke: #A80036; stroke-width: 1.0;"/><text fill="#000000" font-family="sans-serif" font-size="12" lengthAdjust="spacingAndGlyphs" textLength="96" x="463" y="522.4199">产品色彩规范报告</text><path d="M410,518.2656 L420,518.2656 C435,518.2656 435,518.2656 450,518.2656 L460,518.2656 " fill="none" style="stroke: #A80036; stroke-width: 1.0;"/><text fill="#000000" font-family="sans-serif" font-size="12" lengthAdjust="spacingAndGlyphs" textLength="84" x="463" y="538.3887">界面版式与制版</text><path d="M410,518.2656 L420,518.2656 C435,518.2656 435,534.2344 450,534.2344 L460,534.2344 " fill="none" style="stroke: #A80036; stroke-width: 1.0;"/><path d="M292,437.3125 L302,437.3125 C317,437.3125 317,518.2656 332,518.2656 L342,518.2656 " fill="none" style="stroke: #A80036; stroke-width: 1.0;"/><path d="M114,303.0938 L124,303.0938 C139,303.0938 139,437.3125 154,437.3125 L164,437.3125 " fill="none" style="stroke: #A80036; stroke-width: 1.0;"/><rect fill="#FEFECE" filter="url(#fq98qw5fzxegw)" height="33.9688" rx="12.5" ry="12.5" style="stroke: #A80036; stroke-width: 1.5;" width="116" x="164" y="552.2188"/><text fill="#000000" font-family="sans-serif" font-size="12" lengthAdjust="spacingAndGlyphs" textLength="96" x="174" y="573.3574">产品形象总体策划</text><text fill="#000000" font-family="sans-serif" font-size="12" lengthAdjust="spacingAndGlyphs" textLength="144" x="333" y="557.3887">产品说明书设计与电脑排版</text><path d="M280,569.2031 L290,569.2031 C305,569.2031 305,553.2344 320,553.2344 L330,553.2344 " fill="none" style="stroke: #A80036; stroke-width: 1.0;"/><text fill="#000000" font-family="sans-serif" font-size="12" lengthAdjust="spacingAndGlyphs" textLength="108" x="333" y="573.3574">产品展示设计及策划</text><path d="M280,569.2031 L290,569.2031 C305,569.2031 305,569.2031 320,569.2031 L330,569.2031 " fill="none" style="stroke: #A80036; stroke-width: 1.0;"/><text fill="#000000" font-family="sans-serif" font-size="12" lengthAdjust="spacingAndGlyphs" textLength="72" x="333" y="589.3262">产品宣传设计</text><path d="M280,569.2031 L290,569.2031 C305,569.2031 305,585.1719 320,585.1719 L330,585.1719 " fill="none" style="stroke: #A80036; stroke-width: 1.0;"/><path d="M114,303.0938 L124,303.0938 C139,303.0938 139,569.2031 154,569.2031 L164,569.2031 " fill="none" style="stroke: #A80036; stroke-width: 1.0;"/><!--
@startmindmap
+ 牙科综合治疗机
++ 市场与产品调研
++ 设计与模型制作
+++ 方案提出与论证
++++_ 市场与设计定位论证
++++_ 人机学及使用方式操作方案
++++_ 提出产品初步方案设想
++++_ 概念设计与创意
+++ 方案筛选与论证
++++_ 初步方案综合论证评价
++++_ 人机模型初步分析与测试数据分析
++++_ 模型分析
++++_ 方案筛选与综合
++++_ 电脑模型及人机模拟分析
++++_ 初步模型论证
+++ 方案确定与论证
++++_ 最终方案确定与电脑模型方案确定
++++_ 工作原理样机试验
++++_ 比例外观模型及色彩分析处理
++++_ 全尺寸样机制作 (提供使用、试验及检测 )
+++ 设计及制作手段
++++_ 概念创意草图
++++_ 人机模拟测试
++++_ 电脑三维图像成形
++++_ 样机制作加工
++++_ 表面及视觉设计处理
++++_ 相应设计手册及规范
++ 工程设计与设计管理
+++ 工程设计与技术规范化
++++_ 机构设计
++++_ 总装图绘制
++++_ 零件图绘制
+++ 产品试制与工艺监理
++++_ 有关外型工艺与材料监理
++++_ 产品验收 (仅限第一批) 
+++ 产品有关配套设计
++++_ 产品色彩设计及规范
++++_ 产品界面设计
+++ 设计手段
++++_ 电脑工程图绘制
++++_ 产品色彩规范报告
++++_ 界面版式与制版
++ 产品形象总体策划
+++_ 产品说明书设计与电脑排版
+++_ 产品展示设计及策划
+++_ 产品宣传设计
@endmindmap

PlantUML version 1.2019.08(Sun Jul 14 03:25:14 CST 2019)
(GPL source distribution)
Java Runtime: Java(TM) SE Runtime Environment
JVM: Java HotSpot(TM) 64-Bit Server VM
Java Version: 12.0.2+10
Operating System: Linux
OS Version: 5.0.0-20-generic
Default Encoding: UTF-8
Language: en
Country: US
--></g></svg>