<?xml version="1.0" encoding="UTF-8" standalone="no"?><svg xmlns="http://www.w3.org/2000/svg" xmlns:xlink="http://www.w3.org/1999/xlink" contentScriptType="application/ecmascript" contentStyleType="text/css" height="280px" preserveAspectRatio="none" style="width:785px;height:280px;" version="1.1" viewBox="0 0 785 280" width="785px" zoomAndPan="magnify"><defs><filter height="300%" id="f1pbp358l5tk31" width="300%" x="-1" y="-1"><feGaussianBlur result="blurOut" stdDeviation="2.0"/><feColorMatrix in="blurOut" result="blurOut2" type="matrix" values="0 0 0 0 0 0 0 0 0 0 0 0 0 0 0 0 0 0 .4 0"/><feOffset dx="4.0" dy="4.0" in="blurOut2" result="blurOut3"/><feBlend in="SourceGraphic" in2="blurOut3" mode="normal"/></filter></defs><g><rect fill="#FEFECE" filter="url(#f1pbp358l5tk31)" height="33.9688" rx="12.5" ry="12.5" style="stroke: #A80036; stroke-width: 1.5;" width="68" x="10" y="127.9375"/><text fill="#000000" font-family="sans-serif" font-size="12" lengthAdjust="spacingAndGlyphs" textLength="48" x="20" y="149.0762">使用功能</text><rect fill="#FEFECE" filter="url(#f1pbp358l5tk31)" height="33.9688" rx="12.5" ry="12.5" style="stroke: #A80036; stroke-width: 1.5;" width="238" x="128" y="73.9688"/><text fill="#000000" font-family="sans-serif" font-size="12" lengthAdjust="spacingAndGlyphs" textLength="218" x="138" y="95.1074">转换功能 (发动机、驱动系统、数码相机)</text><rect fill="#FEFECE" filter="url(#f1pbp358l5tk31)" height="33.9688" rx="12.5" ry="12.5" style="stroke: #A80036; stroke-width: 1.5;" width="358" x="416" y="20"/><text fill="#000000" font-family="sans-serif" font-size="12" lengthAdjust="spacingAndGlyphs" textLength="338" x="426" y="41.1387">能量流 (机械能、热能、电能、光能、核能、化学能、生物能等)</text><path d="M366,90.9531 L376,90.9531 C391,90.9531 391,36.9844 406,36.9844 L416,36.9844 " fill="none" style="stroke: #A80036; stroke-width: 1.0;"/><rect fill="#FEFECE" filter="url(#f1pbp358l5tk31)" height="33.9688" rx="12.5" ry="12.5" style="stroke: #A80036; stroke-width: 1.5;" width="322" x="416" y="73.9688"/><text fill="#000000" font-family="sans-serif" font-size="12" lengthAdjust="spacingAndGlyphs" textLength="302" x="426" y="95.1074">信息流 (测量、显示值、控制信号、通讯、数据、情报等)</text><path d="M366,90.9531 L376,90.9531 C391,90.9531 391,90.9531 406,90.9531 L416,90.9531 " fill="none" style="stroke: #A80036; stroke-width: 1.0;"/><rect fill="#FEFECE" filter="url(#f1pbp358l5tk31)" height="33.9688" rx="12.5" ry="12.5" style="stroke: #A80036; stroke-width: 1.5;" width="322" x="416" y="127.9375"/><text fill="#000000" font-family="sans-serif" font-size="12" lengthAdjust="spacingAndGlyphs" textLength="302" x="426" y="149.0762">物料流 (材料、毛坯、物件、气体、液体、颗粒、物体等)</text><path d="M366,90.9531 L376,90.9531 C391,90.9531 391,144.9219 406,144.9219 L416,144.9219 " fill="none" style="stroke: #A80036; stroke-width: 1.0;"/><path d="M78,144.9219 L88,144.9219 C103,144.9219 103,90.9531 118,90.9531 L128,90.9531 " fill="none" style="stroke: #A80036; stroke-width: 1.0;"/><rect fill="#FEFECE" filter="url(#f1pbp358l5tk31)" height="33.9688" rx="12.5" ry="12.5" style="stroke: #A80036; stroke-width: 1.5;" width="142" x="128" y="127.9375"/><text fill="#000000" font-family="sans-serif" font-size="12" lengthAdjust="spacingAndGlyphs" textLength="122" x="138" y="149.0762">包裹功能 (服装、包装)</text><path d="M78,144.9219 L88,144.9219 C103,144.9219 103,144.9219 118,144.9219 L128,144.9219 " fill="none" style="stroke: #A80036; stroke-width: 1.0;"/><rect fill="#FEFECE" filter="url(#f1pbp358l5tk31)" height="33.9688" rx="12.5" ry="12.5" style="stroke: #A80036; stroke-width: 1.5;" width="142" x="128" y="181.9063"/><text fill="#000000" font-family="sans-serif" font-size="12" lengthAdjust="spacingAndGlyphs" textLength="122" x="138" y="203.0449">装填功能 (陶瓷日用品)</text><path d="M78,144.9219 L88,144.9219 C103,144.9219 103,198.8906 118,198.8906 L128,198.8906 " fill="none" style="stroke: #A80036; stroke-width: 1.0;"/><rect fill="#FEFECE" filter="url(#f1pbp358l5tk31)" height="33.9688" rx="12.5" ry="12.5" style="stroke: #A80036; stroke-width: 1.5;" width="154" x="128" y="235.875"/><text fill="#000000" font-family="sans-serif" font-size="12" lengthAdjust="spacingAndGlyphs" textLength="134" x="138" y="257.0137">支撑功能 (家具、桌、椅)</text><path d="M78,144.9219 L88,144.9219 C103,144.9219 103,252.8594 118,252.8594 L128,252.8594 " fill="none" style="stroke: #A80036; stroke-width: 1.0;"/><!--
@startmindmap
+ 使用功能
++ 转换功能 (发动机、驱动系统、数码相机)
+++ 能量流 (机械能、热能、电能、光能、核能、化学能、生物能等)
+++ 信息流 (测量、显示值、控制信号、通讯、数据、情报等)
+++ 物料流 (材料、毛坯、物件、气体、液体、颗粒、物体等)
++ 包裹功能 (服装、包装)
++ 装填功能 (陶瓷日用品)
++ 支撑功能 (家具、桌、椅)
@endmindmap

PlantUML version 1.2019.08(Sun Jul 14 03:25:14 CST 2019)
(GPL source distribution)
Java Runtime: Java(TM) SE Runtime Environment
JVM: Java HotSpot(TM) 64-Bit Server VM
Java Version: 12.0.2+10
Operating System: Linux
OS Version: 5.0.0-20-generic
Default Encoding: UTF-8
Language: en
Country: US
--></g></svg>