<?xml version="1.0" encoding="UTF-8" standalone="no"?><svg xmlns="http://www.w3.org/2000/svg" xmlns:xlink="http://www.w3.org/1999/xlink" contentScriptType="application/ecmascript" contentStyleType="text/css" height="604px" preserveAspectRatio="none" style="width:455px;height:604px;" version="1.1" viewBox="0 0 455 604" width="455px" zoomAndPan="magnify"><defs><filter height="300%" id="fkxzsz7csgfg6" width="300%" x="-1" y="-1"><feGaussianBlur result="blurOut" stdDeviation="2.0"/><feColorMatrix in="blurOut" result="blurOut2" type="matrix" values="0 0 0 0 0 0 0 0 0 0 0 0 0 0 0 0 0 0 .4 0"/><feOffset dx="4.0" dy="4.0" in="blurOut2" result="blurOut3"/><feBlend in="SourceGraphic" in2="blurOut3" mode="normal"/></filter></defs><g><rect fill="#FEFECE" filter="url(#fkxzsz7csgfg6)" height="33.9688" rx="12.5" ry="12.5" style="stroke: #A80036; stroke-width: 1.5;" width="116" x="10" y="289.8438"/><text fill="#000000" font-family="sans-serif" font-size="12" lengthAdjust="spacingAndGlyphs" textLength="96" x="20" y="310.9824">产品系统设计要素</text><rect fill="#FEFECE" filter="url(#fkxzsz7csgfg6)" height="33.9688" rx="12.5" ry="12.5" style="stroke: #A80036; stroke-width: 1.5;" width="116" x="176" y="127.9375"/><text fill="#000000" font-family="sans-serif" font-size="12" lengthAdjust="spacingAndGlyphs" textLength="96" x="186" y="149.0762">系统设计内部要素</text><rect fill="#FEFECE" filter="url(#fkxzsz7csgfg6)" height="33.9688" rx="12.5" ry="12.5" style="stroke: #A80036; stroke-width: 1.5;" width="68" x="342" y="20"/><text fill="#000000" font-family="sans-serif" font-size="12" lengthAdjust="spacingAndGlyphs" textLength="48" x="352" y="41.1387">功能要素</text><path d="M292,144.9219 L302,144.9219 C317,144.9219 317,36.9844 332,36.9844 L342,36.9844 " fill="none" style="stroke: #A80036; stroke-width: 1.0;"/><rect fill="#FEFECE" filter="url(#fkxzsz7csgfg6)" height="33.9688" rx="12.5" ry="12.5" style="stroke: #A80036; stroke-width: 1.5;" width="68" x="342" y="73.9688"/><text fill="#000000" font-family="sans-serif" font-size="12" lengthAdjust="spacingAndGlyphs" textLength="48" x="352" y="95.1074">结构要素</text><path d="M292,144.9219 L302,144.9219 C317,144.9219 317,90.9531 332,90.9531 L342,90.9531 " fill="none" style="stroke: #A80036; stroke-width: 1.0;"/><rect fill="#FEFECE" filter="url(#fkxzsz7csgfg6)" height="33.9688" rx="12.5" ry="12.5" style="stroke: #A80036; stroke-width: 1.5;" width="68" x="342" y="127.9375"/><text fill="#000000" font-family="sans-serif" font-size="12" lengthAdjust="spacingAndGlyphs" textLength="48" x="352" y="149.0762">形态要素</text><path d="M292,144.9219 L302,144.9219 C317,144.9219 317,144.9219 332,144.9219 L342,144.9219 " fill="none" style="stroke: #A80036; stroke-width: 1.0;"/><rect fill="#FEFECE" filter="url(#fkxzsz7csgfg6)" height="33.9688" rx="12.5" ry="12.5" style="stroke: #A80036; stroke-width: 1.5;" width="68" x="342" y="181.9063"/><text fill="#000000" font-family="sans-serif" font-size="12" lengthAdjust="spacingAndGlyphs" textLength="48" x="352" y="203.0449">材料要素</text><path d="M292,144.9219 L302,144.9219 C317,144.9219 317,198.8906 332,198.8906 L342,198.8906 " fill="none" style="stroke: #A80036; stroke-width: 1.0;"/><rect fill="#FEFECE" filter="url(#fkxzsz7csgfg6)" height="33.9688" rx="12.5" ry="12.5" style="stroke: #A80036; stroke-width: 1.5;" width="68" x="342" y="235.875"/><text fill="#000000" font-family="sans-serif" font-size="12" lengthAdjust="spacingAndGlyphs" textLength="48" x="352" y="257.0137">色彩要素</text><path d="M292,144.9219 L302,144.9219 C317,144.9219 317,252.8594 332,252.8594 L342,252.8594 " fill="none" style="stroke: #A80036; stroke-width: 1.0;"/><path d="M126,306.8281 L136,306.8281 C151,306.8281 151,144.9219 166,144.9219 L176,144.9219 " fill="none" style="stroke: #A80036; stroke-width: 1.0;"/><rect fill="#FEFECE" filter="url(#fkxzsz7csgfg6)" height="33.9688" rx="12.5" ry="12.5" style="stroke: #A80036; stroke-width: 1.5;" width="116" x="176" y="424.7656"/><text fill="#000000" font-family="sans-serif" font-size="12" lengthAdjust="spacingAndGlyphs" textLength="96" x="186" y="445.9043">系统设计外部要素</text><rect fill="#FEFECE" filter="url(#fkxzsz7csgfg6)" height="33.9688" rx="12.5" ry="12.5" style="stroke: #A80036; stroke-width: 1.5;" width="68" x="342" y="289.8438"/><text fill="#000000" font-family="sans-serif" font-size="12" lengthAdjust="spacingAndGlyphs" textLength="48" x="352" y="310.9824">社会要素</text><path d="M292,441.75 L302,441.75 C317,441.75 317,306.8281 332,306.8281 L342,306.8281 " fill="none" style="stroke: #A80036; stroke-width: 1.0;"/><rect fill="#FEFECE" filter="url(#fkxzsz7csgfg6)" height="33.9688" rx="12.5" ry="12.5" style="stroke: #A80036; stroke-width: 1.5;" width="68" x="342" y="343.8125"/><text fill="#000000" font-family="sans-serif" font-size="12" lengthAdjust="spacingAndGlyphs" textLength="48" x="352" y="364.9512">文化要素</text><path d="M292,441.75 L302,441.75 C317,441.75 317,360.7969 332,360.7969 L342,360.7969 " fill="none" style="stroke: #A80036; stroke-width: 1.0;"/><rect fill="#FEFECE" filter="url(#fkxzsz7csgfg6)" height="33.9688" rx="12.5" ry="12.5" style="stroke: #A80036; stroke-width: 1.5;" width="68" x="342" y="397.7813"/><text fill="#000000" font-family="sans-serif" font-size="12" lengthAdjust="spacingAndGlyphs" textLength="48" x="352" y="418.9199">经济要素</text><path d="M292,441.75 L302,441.75 C317,441.75 317,414.7656 332,414.7656 L342,414.7656 " fill="none" style="stroke: #A80036; stroke-width: 1.0;"/><rect fill="#FEFECE" filter="url(#fkxzsz7csgfg6)" height="33.9688" rx="12.5" ry="12.5" style="stroke: #A80036; stroke-width: 1.5;" width="68" x="342" y="451.75"/><text fill="#000000" font-family="sans-serif" font-size="12" lengthAdjust="spacingAndGlyphs" textLength="48" x="352" y="472.8887">科技要素</text><path d="M292,441.75 L302,441.75 C317,441.75 317,468.7344 332,468.7344 L342,468.7344 " fill="none" style="stroke: #A80036; stroke-width: 1.0;"/><rect fill="#FEFECE" filter="url(#fkxzsz7csgfg6)" height="33.9688" rx="12.5" ry="12.5" style="stroke: #A80036; stroke-width: 1.5;" width="68" x="342" y="505.7188"/><text fill="#000000" font-family="sans-serif" font-size="12" lengthAdjust="spacingAndGlyphs" textLength="48" x="352" y="526.8574">人因要素</text><path d="M292,441.75 L302,441.75 C317,441.75 317,522.7031 332,522.7031 L342,522.7031 " fill="none" style="stroke: #A80036; stroke-width: 1.0;"/><rect fill="#FEFECE" filter="url(#fkxzsz7csgfg6)" height="33.9688" rx="12.5" ry="12.5" style="stroke: #A80036; stroke-width: 1.5;" width="102" x="342" y="559.6875"/><text fill="#000000" font-family="sans-serif" font-size="12" lengthAdjust="spacingAndGlyphs" textLength="82" x="352" y="580.8262">环境要素(生态)</text><path d="M292,441.75 L302,441.75 C317,441.75 317,576.6719 332,576.6719 L342,576.6719 " fill="none" style="stroke: #A80036; stroke-width: 1.0;"/><path d="M126,306.8281 L136,306.8281 C151,306.8281 151,441.75 166,441.75 L176,441.75 " fill="none" style="stroke: #A80036; stroke-width: 1.0;"/><!--
@startmindmap
+ 产品系统设计要素
++ 系统设计内部要素
+++ 功能要素
+++ 结构要素
+++ 形态要素
+++ 材料要素
+++ 色彩要素
++ 系统设计外部要素
+++ 社会要素
+++ 文化要素
+++ 经济要素
+++ 科技要素
+++ 人因要素
+++ 环境要素(生态)
@endmindmap

PlantUML version 1.2019.08(Sun Jul 14 03:25:14 CST 2019)
(GPL source distribution)
Java Runtime: Java(TM) SE Runtime Environment
JVM: Java HotSpot(TM) 64-Bit Server VM
Java Version: 12.0.2+10
Operating System: Linux
OS Version: 5.0.0-20-generic
Default Encoding: UTF-8
Language: en
Country: US
--></g></svg>