<?xml version="1.0" encoding="UTF-8" standalone="no"?><svg xmlns="http://www.w3.org/2000/svg" xmlns:xlink="http://www.w3.org/1999/xlink" contentScriptType="application/ecmascript" contentStyleType="text/css" height="442px" preserveAspectRatio="none" style="width:493px;height:442px;" version="1.1" viewBox="0 0 493 442" width="493px" zoomAndPan="magnify"><defs><filter height="300%" id="fjxji7pt0gz5p" width="300%" x="-1" y="-1"><feGaussianBlur result="blurOut" stdDeviation="2.0"/><feColorMatrix in="blurOut" result="blurOut2" type="matrix" values="0 0 0 0 0 0 0 0 0 0 0 0 0 0 0 0 0 0 .4 0"/><feOffset dx="4.0" dy="4.0" in="blurOut2" result="blurOut3"/><feBlend in="SourceGraphic" in2="blurOut3" mode="normal"/></filter></defs><g><rect fill="#FEFECE" filter="url(#fjxji7pt0gz5p)" height="33.9688" rx="12.5" ry="12.5" style="stroke: #A80036; stroke-width: 1.5;" width="116" x="10" y="208.8906"/><text fill="#000000" font-family="sans-serif" font-size="12" lengthAdjust="spacingAndGlyphs" textLength="96" x="20" y="230.0293">产品系统设计趋势</text><rect fill="#FEFECE" filter="url(#fjxji7pt0gz5p)" height="33.9688" rx="12.5" ry="12.5" style="stroke: #A80036; stroke-width: 1.5;" width="116" x="176" y="100.9531"/><text fill="#000000" font-family="sans-serif" font-size="12" lengthAdjust="spacingAndGlyphs" textLength="96" x="186" y="122.0918">产品设计发展趋势</text><rect fill="#FEFECE" filter="url(#fjxji7pt0gz5p)" height="33.9688" rx="12.5" ry="12.5" style="stroke: #A80036; stroke-width: 1.5;" width="68" x="342" y="20"/><text fill="#000000" font-family="sans-serif" font-size="12" lengthAdjust="spacingAndGlyphs" textLength="48" x="352" y="41.1387">功能发展</text><path d="M292,117.9375 L302,117.9375 C317,117.9375 317,36.9844 332,36.9844 L342,36.9844 " fill="none" style="stroke: #A80036; stroke-width: 1.0;"/><rect fill="#FEFECE" filter="url(#fjxji7pt0gz5p)" height="33.9688" rx="12.5" ry="12.5" style="stroke: #A80036; stroke-width: 1.5;" width="92" x="342" y="73.9688"/><text fill="#000000" font-family="sans-serif" font-size="12" lengthAdjust="spacingAndGlyphs" textLength="72" x="352" y="95.1074">使用方式发展</text><path d="M292,117.9375 L302,117.9375 C317,117.9375 317,90.9531 332,90.9531 L342,90.9531 " fill="none" style="stroke: #A80036; stroke-width: 1.0;"/><rect fill="#FEFECE" filter="url(#fjxji7pt0gz5p)" height="33.9688" rx="12.5" ry="12.5" style="stroke: #A80036; stroke-width: 1.5;" width="68" x="342" y="127.9375"/><text fill="#000000" font-family="sans-serif" font-size="12" lengthAdjust="spacingAndGlyphs" textLength="48" x="352" y="149.0762">定位趋势</text><path d="M292,117.9375 L302,117.9375 C317,117.9375 317,144.9219 332,144.9219 L342,144.9219 " fill="none" style="stroke: #A80036; stroke-width: 1.0;"/><rect fill="#FEFECE" filter="url(#fjxji7pt0gz5p)" height="33.9688" rx="12.5" ry="12.5" style="stroke: #A80036; stroke-width: 1.5;" width="80" x="342" y="181.9063"/><text fill="#000000" font-family="sans-serif" font-size="12" lengthAdjust="spacingAndGlyphs" textLength="60" x="352" y="203.0449">设计者变化</text><path d="M292,117.9375 L302,117.9375 C317,117.9375 317,198.8906 332,198.8906 L342,198.8906 " fill="none" style="stroke: #A80036; stroke-width: 1.0;"/><path d="M126,225.875 L136,225.875 C151,225.875 151,117.9375 166,117.9375 L176,117.9375 " fill="none" style="stroke: #A80036; stroke-width: 1.0;"/><rect fill="#FEFECE" filter="url(#fjxji7pt0gz5p)" height="33.9688" rx="12.5" ry="12.5" style="stroke: #A80036; stroke-width: 1.5;" width="140" x="176" y="262.8594"/><text fill="#000000" font-family="sans-serif" font-size="12" lengthAdjust="spacingAndGlyphs" textLength="120" x="186" y="283.998">产品系统设计核心走向</text><rect fill="#FEFECE" filter="url(#fjxji7pt0gz5p)" height="33.9688" rx="12.5" ry="12.5" style="stroke: #A80036; stroke-width: 1.5;" width="68" x="366" y="235.875"/><text fill="#000000" font-family="sans-serif" font-size="12" lengthAdjust="spacingAndGlyphs" textLength="48" x="376" y="257.0137">服务设计</text><path d="M316,279.8438 L326,279.8438 C341,279.8438 341,252.8594 356,252.8594 L366,252.8594 " fill="none" style="stroke: #A80036; stroke-width: 1.0;"/><rect fill="#FEFECE" filter="url(#fjxji7pt0gz5p)" height="33.9688" rx="12.5" ry="12.5" style="stroke: #A80036; stroke-width: 1.5;" width="80" x="366" y="289.8438"/><text fill="#000000" font-family="sans-serif" font-size="12" lengthAdjust="spacingAndGlyphs" textLength="60" x="376" y="310.9824">可持续设计</text><path d="M316,279.8438 L326,279.8438 C341,279.8438 341,306.8281 356,306.8281 L366,306.8281 " fill="none" style="stroke: #A80036; stroke-width: 1.0;"/><path d="M126,225.875 L136,225.875 C151,225.875 151,279.8438 166,279.8438 L176,279.8438 " fill="none" style="stroke: #A80036; stroke-width: 1.0;"/><rect fill="#FEFECE" filter="url(#fjxji7pt0gz5p)" height="33.9688" rx="12.5" ry="12.5" style="stroke: #A80036; stroke-width: 1.5;" width="140" x="176" y="370.7969"/><text fill="#000000" font-family="sans-serif" font-size="12" lengthAdjust="spacingAndGlyphs" textLength="120" x="186" y="391.9355">持续推动产品系统设计</text><rect fill="#FEFECE" filter="url(#fjxji7pt0gz5p)" height="33.9688" rx="12.5" ry="12.5" style="stroke: #A80036; stroke-width: 1.5;" width="68" x="366" y="343.8125"/><text fill="#000000" font-family="sans-serif" font-size="12" lengthAdjust="spacingAndGlyphs" textLength="48" x="376" y="364.9512">发展热点</text><path d="M316,387.7813 L326,387.7813 C341,387.7813 341,360.7969 356,360.7969 L366,360.7969 " fill="none" style="stroke: #A80036; stroke-width: 1.0;"/><rect fill="#FEFECE" filter="url(#fjxji7pt0gz5p)" height="33.9688" rx="12.5" ry="12.5" style="stroke: #A80036; stroke-width: 1.5;" width="116" x="366" y="397.7813"/><text fill="#000000" font-family="sans-serif" font-size="12" lengthAdjust="spacingAndGlyphs" textLength="96" x="376" y="418.9199">系统设计时代价值</text><path d="M316,387.7813 L326,387.7813 C341,387.7813 341,414.7656 356,414.7656 L366,414.7656 " fill="none" style="stroke: #A80036; stroke-width: 1.0;"/><path d="M126,225.875 L136,225.875 C151,225.875 151,387.7813 166,387.7813 L176,387.7813 " fill="none" style="stroke: #A80036; stroke-width: 1.0;"/><!--
@startmindmap
+ 产品系统设计趋势
++ 产品设计发展趋势
+++ 功能发展
+++ 使用方式发展
+++ 定位趋势
+++ 设计者变化
++ 产品系统设计核心走向
+++ 服务设计
+++ 可持续设计
++ 持续推动产品系统设计
+++ 发展热点
+++ 系统设计时代价值
@endmindmap

PlantUML version 1.2019.08(Sun Jul 14 03:25:14 CST 2019)
(GPL source distribution)
Java Runtime: Java(TM) SE Runtime Environment
JVM: Java HotSpot(TM) 64-Bit Server VM
Java Version: 12.0.2+10
Operating System: Linux
OS Version: 5.0.0-20-generic
Default Encoding: UTF-8
Language: en
Country: US
--></g></svg>