<?xml version="1.0" encoding="UTF-8" standalone="no"?><svg xmlns="http://www.w3.org/2000/svg" xmlns:xlink="http://www.w3.org/1999/xlink" contentScriptType="application/ecmascript" contentStyleType="text/css" height="334px" preserveAspectRatio="none" style="width:291px;height:334px;" version="1.1" viewBox="0 0 291 334" width="291px" zoomAndPan="magnify"><defs><filter height="300%" id="fhprrtmebi26y" width="300%" x="-1" y="-1"><feGaussianBlur result="blurOut" stdDeviation="2.0"/><feColorMatrix in="blurOut" result="blurOut2" type="matrix" values="0 0 0 0 0 0 0 0 0 0 0 0 0 0 0 0 0 0 .4 0"/><feOffset dx="4.0" dy="4.0" in="blurOut2" result="blurOut3"/><feBlend in="SourceGraphic" in2="blurOut3" mode="normal"/></filter></defs><g><rect fill="#FEFECE" filter="url(#fhprrtmebi26y)" height="33.9688" rx="12.5" ry="12.5" style="stroke: #A80036; stroke-width: 1.5;" width="116" x="10" y="154.9219"/><text fill="#000000" font-family="sans-serif" font-size="12" lengthAdjust="spacingAndGlyphs" textLength="96" x="20" y="176.0605">产品系统设计流程</text><rect fill="#FEFECE" filter="url(#fhprrtmebi26y)" height="33.9688" rx="12.5" ry="12.5" style="stroke: #A80036; stroke-width: 1.5;" width="68" x="176" y="20"/><text fill="#000000" font-family="sans-serif" font-size="12" lengthAdjust="spacingAndGlyphs" textLength="48" x="186" y="41.1387">设计规划</text><path d="M126,171.9063 L136,171.9063 C151,171.9063 151,36.9844 166,36.9844 L176,36.9844 " fill="none" style="stroke: #A80036; stroke-width: 1.0;"/><rect fill="#FEFECE" filter="url(#fhprrtmebi26y)" height="33.9688" rx="12.5" ry="12.5" style="stroke: #A80036; stroke-width: 1.5;" width="104" x="176" y="73.9688"/><text fill="#000000" font-family="sans-serif" font-size="12" lengthAdjust="spacingAndGlyphs" textLength="84" x="186" y="95.1074">设计调研与定位</text><path d="M126,171.9063 L136,171.9063 C151,171.9063 151,90.9531 166,90.9531 L176,90.9531 " fill="none" style="stroke: #A80036; stroke-width: 1.0;"/><rect fill="#FEFECE" filter="url(#fhprrtmebi26y)" height="33.9688" rx="12.5" ry="12.5" style="stroke: #A80036; stroke-width: 1.5;" width="68" x="176" y="127.9375"/><text fill="#000000" font-family="sans-serif" font-size="12" lengthAdjust="spacingAndGlyphs" textLength="48" x="186" y="149.0762">设计方案</text><path d="M126,171.9063 L136,171.9063 C151,171.9063 151,144.9219 166,144.9219 L176,144.9219 " fill="none" style="stroke: #A80036; stroke-width: 1.0;"/><rect fill="#FEFECE" filter="url(#fhprrtmebi26y)" height="33.9688" rx="12.5" ry="12.5" style="stroke: #A80036; stroke-width: 1.5;" width="68" x="176" y="181.9063"/><text fill="#000000" font-family="sans-serif" font-size="12" lengthAdjust="spacingAndGlyphs" textLength="48" x="186" y="203.0449">设计评价</text><path d="M126,171.9063 L136,171.9063 C151,171.9063 151,198.8906 166,198.8906 L176,198.8906 " fill="none" style="stroke: #A80036; stroke-width: 1.0;"/><rect fill="#FEFECE" filter="url(#fhprrtmebi26y)" height="33.9688" rx="12.5" ry="12.5" style="stroke: #A80036; stroke-width: 1.5;" width="80" x="176" y="235.875"/><text fill="#000000" font-family="sans-serif" font-size="12" lengthAdjust="spacingAndGlyphs" textLength="60" x="186" y="257.0137">设计与生产</text><path d="M126,171.9063 L136,171.9063 C151,171.9063 151,252.8594 166,252.8594 L176,252.8594 " fill="none" style="stroke: #A80036; stroke-width: 1.0;"/><rect fill="#FEFECE" filter="url(#fhprrtmebi26y)" height="33.9688" rx="12.5" ry="12.5" style="stroke: #A80036; stroke-width: 1.5;" width="80" x="176" y="289.8438"/><text fill="#000000" font-family="sans-serif" font-size="12" lengthAdjust="spacingAndGlyphs" textLength="60" x="186" y="310.9824">设计与营销</text><path d="M126,171.9063 L136,171.9063 C151,171.9063 151,306.8281 166,306.8281 L176,306.8281 " fill="none" style="stroke: #A80036; stroke-width: 1.0;"/><!--
@startmindmap
+ 产品系统设计流程
++ 设计规划
++ 设计调研与定位
++ 设计方案
++ 设计评价
++ 设计与生产
++ 设计与营销
@endmindmap

PlantUML version 1.2019.08(Sun Jul 14 03:25:14 CST 2019)
(GPL source distribution)
Java Runtime: Java(TM) SE Runtime Environment
JVM: Java HotSpot(TM) 64-Bit Server VM
Java Version: 12.0.2+10
Operating System: Linux
OS Version: 5.0.0-20-generic
Default Encoding: UTF-8
Language: en
Country: US
--></g></svg>