<?xml version="1.0" encoding="UTF-8" standalone="no"?><svg xmlns="http://www.w3.org/2000/svg" xmlns:xlink="http://www.w3.org/1999/xlink" contentScriptType="application/ecmascript" contentStyleType="text/css" height="442px" preserveAspectRatio="none" style="width:279px;height:442px;" version="1.1" viewBox="0 0 279 442" width="279px" zoomAndPan="magnify"><defs><filter height="300%" id="f189zqimlog8b2" width="300%" x="-1" y="-1"><feGaussianBlur result="blurOut" stdDeviation="2.0"/><feColorMatrix in="blurOut" result="blurOut2" type="matrix" values="0 0 0 0 0 0 0 0 0 0 0 0 0 0 0 0 0 0 .4 0"/><feOffset dx="4.0" dy="4.0" in="blurOut2" result="blurOut3"/><feBlend in="SourceGraphic" in2="blurOut3" mode="normal"/></filter></defs><g><rect fill="#FEFECE" filter="url(#f189zqimlog8b2)" height="33.9688" rx="12.5" ry="12.5" style="stroke: #A80036; stroke-width: 1.5;" width="92" x="10" y="208.8906"/><text fill="#000000" font-family="sans-serif" font-size="12" lengthAdjust="spacingAndGlyphs" textLength="72" x="20" y="230.0293">产品系统设计</text><rect fill="#FEFECE" filter="url(#f189zqimlog8b2)" height="33.9688" rx="12.5" ry="12.5" style="stroke: #A80036; stroke-width: 1.5;" width="116" x="152" y="20"/><text fill="#000000" font-family="sans-serif" font-size="12" lengthAdjust="spacingAndGlyphs" textLength="96" x="162" y="41.1387">产品系统设计概述</text><path d="M102,225.875 L112,225.875 C127,225.875 127,36.9844 142,36.9844 L152,36.9844 " fill="none" style="stroke: #A80036; stroke-width: 1.0;"/><rect fill="#FEFECE" filter="url(#f189zqimlog8b2)" height="33.9688" rx="12.5" ry="12.5" style="stroke: #A80036; stroke-width: 1.5;" width="116" x="152" y="73.9688"/><text fill="#000000" font-family="sans-serif" font-size="12" lengthAdjust="spacingAndGlyphs" textLength="96" x="162" y="95.1074">产品系统设计方法</text><path d="M102,225.875 L112,225.875 C127,225.875 127,90.9531 142,90.9531 L152,90.9531 " fill="none" style="stroke: #A80036; stroke-width: 1.0;"/><rect fill="#FEFECE" filter="url(#f189zqimlog8b2)" height="33.9688" rx="12.5" ry="12.5" style="stroke: #A80036; stroke-width: 1.5;" width="116" x="152" y="127.9375"/><text fill="#000000" font-family="sans-serif" font-size="12" lengthAdjust="spacingAndGlyphs" textLength="96" x="162" y="149.0762">产品系统设计模式</text><path d="M102,225.875 L112,225.875 C127,225.875 127,144.9219 142,144.9219 L152,144.9219 " fill="none" style="stroke: #A80036; stroke-width: 1.0;"/><rect fill="#FEFECE" filter="url(#f189zqimlog8b2)" height="33.9688" rx="12.5" ry="12.5" style="stroke: #A80036; stroke-width: 1.5;" width="116" x="152" y="181.9063"/><text fill="#000000" font-family="sans-serif" font-size="12" lengthAdjust="spacingAndGlyphs" textLength="96" x="162" y="203.0449">产品系统设计要素</text><path d="M102,225.875 L112,225.875 C127,225.875 127,198.8906 142,198.8906 L152,198.8906 " fill="none" style="stroke: #A80036; stroke-width: 1.0;"/><rect fill="#FEFECE" filter="url(#f189zqimlog8b2)" height="33.9688" rx="12.5" ry="12.5" style="stroke: #A80036; stroke-width: 1.5;" width="116" x="152" y="235.875"/><text fill="#000000" font-family="sans-serif" font-size="12" lengthAdjust="spacingAndGlyphs" textLength="96" x="162" y="257.0137">产品系统设计流程</text><path d="M102,225.875 L112,225.875 C127,225.875 127,252.8594 142,252.8594 L152,252.8594 " fill="none" style="stroke: #A80036; stroke-width: 1.0;"/><rect fill="#FEFECE" filter="url(#f189zqimlog8b2)" height="33.9688" rx="12.5" ry="12.5" style="stroke: #A80036; stroke-width: 1.5;" width="116" x="152" y="289.8438"/><text fill="#000000" font-family="sans-serif" font-size="12" lengthAdjust="spacingAndGlyphs" textLength="96" x="162" y="310.9824">产品系统设计管理</text><path d="M102,225.875 L112,225.875 C127,225.875 127,306.8281 142,306.8281 L152,306.8281 " fill="none" style="stroke: #A80036; stroke-width: 1.0;"/><rect fill="#FEFECE" filter="url(#f189zqimlog8b2)" height="33.9688" rx="12.5" ry="12.5" style="stroke: #A80036; stroke-width: 1.5;" width="116" x="152" y="343.8125"/><text fill="#000000" font-family="sans-serif" font-size="12" lengthAdjust="spacingAndGlyphs" textLength="96" x="162" y="364.9512">产品系统设计案例</text><path d="M102,225.875 L112,225.875 C127,225.875 127,360.7969 142,360.7969 L152,360.7969 " fill="none" style="stroke: #A80036; stroke-width: 1.0;"/><rect fill="#FEFECE" filter="url(#f189zqimlog8b2)" height="33.9688" rx="12.5" ry="12.5" style="stroke: #A80036; stroke-width: 1.5;" width="116" x="152" y="397.7813"/><text fill="#000000" font-family="sans-serif" font-size="12" lengthAdjust="spacingAndGlyphs" textLength="96" x="162" y="418.9199">产品系统设计趋势</text><path d="M102,225.875 L112,225.875 C127,225.875 127,414.7656 142,414.7656 L152,414.7656 " fill="none" style="stroke: #A80036; stroke-width: 1.0;"/><!--
@startmindmap
+ 产品系统设计
++ 产品系统设计概述
++ 产品系统设计方法
++ 产品系统设计模式
++ 产品系统设计要素
++ 产品系统设计流程
++ 产品系统设计管理
++ 产品系统设计案例
++ 产品系统设计趋势
@endmindmap

PlantUML version 1.2019.08(Sun Jul 14 03:25:14 CST 2019)
(GPL source distribution)
Java Runtime: Java(TM) SE Runtime Environment
JVM: Java HotSpot(TM) 64-Bit Server VM
Java Version: 12.0.2+10
Operating System: Linux
OS Version: 5.0.0-20-generic
Default Encoding: UTF-8
Language: en
Country: US
--></g></svg>