<?xml version="1.0" encoding="UTF-8" standalone="no"?><svg xmlns="http://www.w3.org/2000/svg" xmlns:xlink="http://www.w3.org/1999/xlink" contentScriptType="application/ecmascript" contentStyleType="text/css" height="334px" preserveAspectRatio="none" style="width:397px;height:334px;" version="1.1" viewBox="0 0 397 334" width="397px" zoomAndPan="magnify"><defs><filter height="300%" id="f341r7elkbiov" width="300%" x="-1" y="-1"><feGaussianBlur result="blurOut" stdDeviation="2.0"/><feColorMatrix in="blurOut" result="blurOut2" type="matrix" values="0 0 0 0 0 0 0 0 0 0 0 0 0 0 0 0 0 0 .4 0"/><feOffset dx="4.0" dy="4.0" in="blurOut2" result="blurOut3"/><feBlend in="SourceGraphic" in2="blurOut3" mode="normal"/></filter></defs><g><rect fill="#FEFECE" filter="url(#f341r7elkbiov)" height="33.9688" rx="12.5" ry="12.5" style="stroke: #A80036; stroke-width: 1.5;" width="92" x="10" y="154.9219"/><text fill="#000000" font-family="sans-serif" font-size="12" lengthAdjust="spacingAndGlyphs" textLength="72" x="20" y="176.0605">产品系统设计</text><rect fill="#FEFECE" filter="url(#f341r7elkbiov)" height="33.9688" rx="12.5" ry="12.5" style="stroke: #A80036; stroke-width: 1.5;" width="116" x="152" y="20"/><text fill="#000000" font-family="sans-serif" font-size="12" lengthAdjust="spacingAndGlyphs" textLength="96" x="162" y="41.1387">产品系统设计概述</text><path d="M102,171.9063 L112,171.9063 C127,171.9063 127,36.9844 142,36.9844 L152,36.9844 " fill="none" style="stroke: #A80036; stroke-width: 1.0;"/><rect fill="#FEFECE" filter="url(#f341r7elkbiov)" height="33.9688" rx="12.5" ry="12.5" style="stroke: #A80036; stroke-width: 1.5;" width="116" x="152" y="73.9688"/><text fill="#000000" font-family="sans-serif" font-size="12" lengthAdjust="spacingAndGlyphs" textLength="96" x="162" y="95.1074">产品系统设计方法</text><path d="M102,171.9063 L112,171.9063 C127,171.9063 127,90.9531 142,90.9531 L152,90.9531 " fill="none" style="stroke: #A80036; stroke-width: 1.0;"/><rect fill="#FEFECE" filter="url(#f341r7elkbiov)" height="33.9688" rx="12.5" ry="12.5" style="stroke: #A80036; stroke-width: 1.5;" width="116" x="152" y="127.9375"/><text fill="#000000" font-family="sans-serif" font-size="12" lengthAdjust="spacingAndGlyphs" textLength="96" x="162" y="149.0762">产品系统设计整合</text><path d="M102,171.9063 L112,171.9063 C127,171.9063 127,144.9219 142,144.9219 L152,144.9219 " fill="none" style="stroke: #A80036; stroke-width: 1.0;"/><rect fill="#FEFECE" filter="url(#f341r7elkbiov)" height="33.9688" rx="12.5" ry="12.5" style="stroke: #A80036; stroke-width: 1.5;" width="116" x="152" y="181.9063"/><text fill="#000000" font-family="sans-serif" font-size="12" lengthAdjust="spacingAndGlyphs" textLength="96" x="162" y="203.0449">产品系统设计要素</text><rect fill="#FEFECE" filter="url(#f341r7elkbiov)" height="33.9688" rx="12.5" ry="12.5" style="stroke: #A80036; stroke-width: 1.5;" width="68" x="318" y="154.9219"/><text fill="#000000" font-family="sans-serif" font-size="12" lengthAdjust="spacingAndGlyphs" textLength="48" x="328" y="176.0605">内部要素</text><path d="M268,198.8906 L278,198.8906 C293,198.8906 293,171.9063 308,171.9063 L318,171.9063 " fill="none" style="stroke: #A80036; stroke-width: 1.0;"/><rect fill="#FEFECE" filter="url(#f341r7elkbiov)" height="33.9688" rx="12.5" ry="12.5" style="stroke: #A80036; stroke-width: 1.5;" width="68" x="318" y="208.8906"/><text fill="#000000" font-family="sans-serif" font-size="12" lengthAdjust="spacingAndGlyphs" textLength="48" x="328" y="230.0293">外部要素</text><path d="M268,198.8906 L278,198.8906 C293,198.8906 293,225.875 308,225.875 L318,225.875 " fill="none" style="stroke: #A80036; stroke-width: 1.0;"/><path d="M102,171.9063 L112,171.9063 C127,171.9063 127,198.8906 142,198.8906 L152,198.8906 " fill="none" style="stroke: #A80036; stroke-width: 1.0;"/><rect fill="#FEFECE" filter="url(#f341r7elkbiov)" height="33.9688" rx="12.5" ry="12.5" style="stroke: #A80036; stroke-width: 1.5;" width="116" x="152" y="235.875"/><text fill="#000000" font-family="sans-serif" font-size="12" lengthAdjust="spacingAndGlyphs" textLength="96" x="162" y="257.0137">产品系统设计流程</text><path d="M102,171.9063 L112,171.9063 C127,171.9063 127,252.8594 142,252.8594 L152,252.8594 " fill="none" style="stroke: #A80036; stroke-width: 1.0;"/><rect fill="#FEFECE" filter="url(#f341r7elkbiov)" height="33.9688" rx="12.5" ry="12.5" style="stroke: #A80036; stroke-width: 1.5;" width="116" x="152" y="289.8438"/><text fill="#000000" font-family="sans-serif" font-size="12" lengthAdjust="spacingAndGlyphs" textLength="96" x="162" y="310.9824">产品系统设计趋势</text><path d="M102,171.9063 L112,171.9063 C127,171.9063 127,306.8281 142,306.8281 L152,306.8281 " fill="none" style="stroke: #A80036; stroke-width: 1.0;"/><!--
@startmindmap
+ 产品系统设计
++ 产品系统设计概述
++ 产品系统设计方法
++ 产品系统设计整合
++ 产品系统设计要素
+++ 内部要素
+++ 外部要素
++ 产品系统设计流程
++ 产品系统设计趋势
@endmindmap

PlantUML version 1.2019.08(Sun Jul 14 03:25:14 CST 2019)
(GPL source distribution)
Java Runtime: Java(TM) SE Runtime Environment
JVM: Java HotSpot(TM) 64-Bit Server VM
Java Version: 12.0.2+10
Operating System: Linux
OS Version: 5.0.0-20-generic
Default Encoding: UTF-8
Language: en
Country: US
--></g></svg>