<?xml version="1.0" encoding="UTF-8" standalone="no"?><svg xmlns="http://www.w3.org/2000/svg" xmlns:xlink="http://www.w3.org/1999/xlink" contentScriptType="application/ecmascript" contentStyleType="text/css" height="280px" preserveAspectRatio="none" style="width:267px;height:280px;" version="1.1" viewBox="0 0 267 280" width="267px" zoomAndPan="magnify"><defs><filter height="300%" id="f1gf5gwzc08pry" width="300%" x="-1" y="-1"><feGaussianBlur result="blurOut" stdDeviation="2.0"/><feColorMatrix in="blurOut" result="blurOut2" type="matrix" values="0 0 0 0 0 0 0 0 0 0 0 0 0 0 0 0 0 0 .4 0"/><feOffset dx="4.0" dy="4.0" in="blurOut2" result="blurOut3"/><feBlend in="SourceGraphic" in2="blurOut3" mode="normal"/></filter></defs><g><rect fill="#FEFECE" filter="url(#f1gf5gwzc08pry)" height="33.9688" rx="12.5" ry="12.5" style="stroke: #A80036; stroke-width: 1.5;" width="80" x="10" y="127.9375"/><text fill="#000000" font-family="sans-serif" font-size="12" lengthAdjust="spacingAndGlyphs" textLength="60" x="20" y="149.0762">设计方法学</text><rect fill="#FEFECE" filter="url(#f1gf5gwzc08pry)" height="33.9688" rx="12.5" ry="12.5" style="stroke: #A80036; stroke-width: 1.5;" width="104" x="140" y="20"/><text fill="#000000" font-family="sans-serif" font-size="12" lengthAdjust="spacingAndGlyphs" textLength="84" x="150" y="41.1387">设计方法学概述</text><path d="M90,144.9219 L100,144.9219 C115,144.9219 115,36.9844 130,36.9844 L140,36.9844 " fill="none" style="stroke: #A80036; stroke-width: 1.0;"/><rect fill="#FEFECE" filter="url(#f1gf5gwzc08pry)" height="33.9688" rx="12.5" ry="12.5" style="stroke: #A80036; stroke-width: 1.5;" width="116" x="140" y="73.9688"/><text fill="#000000" font-family="sans-serif" font-size="12" lengthAdjust="spacingAndGlyphs" textLength="96" x="150" y="95.1074">创造性思维与方法</text><path d="M90,144.9219 L100,144.9219 C115,144.9219 115,90.9531 130,90.9531 L140,90.9531 " fill="none" style="stroke: #A80036; stroke-width: 1.0;"/><rect fill="#FEFECE" filter="url(#f1gf5gwzc08pry)" height="33.9688" rx="12.5" ry="12.5" style="stroke: #A80036; stroke-width: 1.5;" width="95" x="140" y="127.9375"/><text fill="#000000" font-family="sans-serif" font-size="12" lengthAdjust="spacingAndGlyphs" textLength="75" x="150" y="149.0762">TRIZ创新方法</text><path d="M90,144.9219 L100,144.9219 C115,144.9219 115,144.9219 130,144.9219 L140,144.9219 " fill="none" style="stroke: #A80036; stroke-width: 1.0;"/><rect fill="#FEFECE" filter="url(#f1gf5gwzc08pry)" height="33.9688" rx="12.5" ry="12.5" style="stroke: #A80036; stroke-width: 1.5;" width="104" x="140" y="181.9063"/><text fill="#000000" font-family="sans-serif" font-size="12" lengthAdjust="spacingAndGlyphs" textLength="84" x="150" y="203.0449">智能化设计方法</text><path d="M90,144.9219 L100,144.9219 C115,144.9219 115,198.8906 130,198.8906 L140,198.8906 " fill="none" style="stroke: #A80036; stroke-width: 1.0;"/><rect fill="#FEFECE" filter="url(#f1gf5gwzc08pry)" height="33.9688" rx="12.5" ry="12.5" style="stroke: #A80036; stroke-width: 1.5;" width="92" x="140" y="235.875"/><text fill="#000000" font-family="sans-serif" font-size="12" lengthAdjust="spacingAndGlyphs" textLength="72" x="150" y="257.0137">其它设计方法</text><path d="M90,144.9219 L100,144.9219 C115,144.9219 115,252.8594 130,252.8594 L140,252.8594 " fill="none" style="stroke: #A80036; stroke-width: 1.0;"/><!--
@startmindmap
+ 设计方法学
++ 设计方法学概述
++ 创造性思维与方法
++ TRIZ创新方法
++ 智能化设计方法
++ 其它设计方法
@endmindmap

PlantUML version 1.2019.08(Sun Jul 14 03:25:14 CST 2019)
(GPL source distribution)
Java Runtime: Java(TM) SE Runtime Environment
JVM: Java HotSpot(TM) 64-Bit Server VM
Java Version: 12.0.2+10
Operating System: Linux
OS Version: 5.0.0-20-generic
Default Encoding: UTF-8
Language: en
Country: US
--></g></svg>